<svg width="260" height="256" viewBox="0 0 260 256" fill="none" xmlns="http://www.w3.org/2000/svg">
<path d="M87.1876 118.161L106.162 134.245L100.261 158.432C99.099 162.943 104.078 166.646 108.125 164.099L129.302 151.021L150.479 164.099C154.417 166.526 159.386 162.943 158.344 158.427L152.443 134.245L171.422 118.156C175.005 115.151 173.156 109.25 168.412 108.901L143.531 107.047L134.156 84.026C132.422 79.7395 126.292 79.7395 124.438 84.026L115.068 107.047L90.1876 108.901C85.448 109.37 83.5938 115.151 87.1876 118.161Z" fill="black"/>
<mask id="mask0_11_239" style="mask-type:luminance" maskUnits="userSpaceOnUse" x="50" y="48" width="159" height="159">
<path d="M50 48H209V207H50V48Z" fill="white"/>
</mask>
<g mask="url(#mask0_11_239)">
<path d="M129.516 206.953C85.6927 206.953 50.0365 171.302 50.0365 127.474C50.0365 83.651 85.6927 47.9948 129.516 47.9948C173.344 47.9948 209 83.651 209 127.474C209 171.302 173.344 206.953 129.516 206.953ZM129.516 55.8333C90.0157 55.8333 57.8802 87.9739 57.8802 127.474C57.8802 166.974 90.0157 199.115 129.516 199.115C169.021 199.115 201.161 166.974 201.161 127.474C201.161 87.9739 169.021 55.8333 129.516 55.8333Z" fill="black"/>
</g>
</svg>
