<svg width="260" height="256" viewBox="0 0 260 256" fill="none" xmlns="http://www.w3.org/2000/svg">
<path d="M146.821 160.685C142.035 164.42 135.896 166.501 129.503 166.501C123.104 166.501 116.965 164.42 112.179 160.685C110.797 159.58 108.768 159.838 107.676 161.27C106.583 162.702 106.843 164.712 108.254 165.817C114.138 170.434 121.688 173 129.503 173C137.312 173 144.862 170.434 150.746 165.817C152.157 164.712 152.417 162.666 151.324 161.27C150.232 159.838 148.203 159.58 146.821 160.685Z" fill="white"/>
<path d="M113 130.5C113 130.927 112.953 131.348 112.871 131.768C112.79 132.189 112.667 132.593 112.503 132.99C112.339 133.382 112.141 133.756 111.901 134.112C111.667 134.469 111.393 134.796 111.094 135.094C110.79 135.398 110.463 135.667 110.107 135.907C109.756 136.141 109.382 136.345 108.984 136.503C108.593 136.667 108.183 136.795 107.763 136.877C107.348 136.959 106.927 137 106.5 137C106.073 137 105.647 136.959 105.232 136.877C104.811 136.795 104.402 136.667 104.01 136.503C103.618 136.345 103.238 136.141 102.888 135.907C102.531 135.667 102.204 135.398 101.9 135.094C101.602 134.796 101.327 134.469 101.093 134.112C100.853 133.756 100.655 133.382 100.491 132.99C100.327 132.593 100.205 132.189 100.123 131.768C100.041 131.348 100 130.927 100 130.5C100 130.073 100.041 129.652 100.123 129.232C100.205 128.817 100.327 128.407 100.491 128.016C100.655 127.618 100.853 127.244 101.093 126.888C101.327 126.537 101.602 126.204 101.9 125.906C102.204 125.602 102.531 125.333 102.888 125.099C103.238 124.859 103.618 124.661 104.01 124.497C104.402 124.333 104.811 124.21 105.232 124.129C105.647 124.041 106.073 124 106.5 124C106.927 124 107.348 124.041 107.763 124.129C108.183 124.21 108.593 124.333 108.984 124.497C109.382 124.661 109.756 124.859 110.107 125.099C110.463 125.333 110.79 125.602 111.094 125.906C111.393 126.204 111.667 126.537 111.901 126.888C112.141 127.244 112.339 127.618 112.503 128.016C112.667 128.407 112.79 128.817 112.871 129.232C112.953 129.652 113 130.073 113 130.5Z" fill="white"/>
<mask id="mask0_11_215" style="mask-type:luminance" maskUnits="userSpaceOnUse" x="51" y="49" width="157" height="157">
<path d="M51 49H208V206H51V49Z" fill="white"/>
</mask>
<g mask="url(#mask0_11_215)">
<path d="M129.5 49C86.1615 49 51 84.1615 51 127.5C51 170.839 86.1615 206 129.5 206C172.839 206 208 170.839 208 127.5C208 84.1615 172.839 49 129.5 49ZM181.569 145.948C174.439 170.415 153.637 188.175 128.976 188.175C104.28 188.175 83.4436 170.35 76.349 145.819C68.5601 145.166 62.4479 138.101 62.4479 129.4C62.4479 121.088 68.0366 114.252 75.3018 113.075V113.046C88.9734 103.463 100.192 90.2149 102.086 80.0082L102.121 80.0435V79.9435C110.987 97.1154 143.33 113.893 179.474 113.046C180.127 112.946 180.751 112.817 181.404 112.817C189.746 112.817 196.517 120.241 196.517 129.4C196.552 138.489 189.846 145.884 181.569 145.948Z" fill="white"/>
</g>
<path d="M159 130.5C159 130.927 158.953 131.348 158.871 131.768C158.79 132.189 158.667 132.593 158.503 132.99C158.339 133.382 158.141 133.756 157.901 134.112C157.667 134.469 157.393 134.796 157.094 135.094C156.79 135.398 156.463 135.667 156.107 135.907C155.756 136.141 155.382 136.345 154.984 136.503C154.593 136.667 154.183 136.795 153.763 136.877C153.348 136.959 152.927 137 152.5 137C152.073 137 151.647 136.959 151.232 136.877C150.811 136.795 150.402 136.667 150.01 136.503C149.618 136.345 149.238 136.141 148.888 135.907C148.531 135.667 148.204 135.398 147.9 135.094C147.602 134.796 147.327 134.469 147.093 134.112C146.853 133.756 146.655 133.382 146.491 132.99C146.327 132.593 146.205 132.189 146.123 131.768C146.041 131.348 146 130.927 146 130.5C146 130.073 146.041 129.652 146.123 129.232C146.205 128.817 146.327 128.407 146.491 128.016C146.655 127.618 146.853 127.244 147.093 126.888C147.327 126.537 147.602 126.204 147.9 125.906C148.204 125.602 148.531 125.333 148.888 125.099C149.238 124.859 149.618 124.661 150.01 124.497C150.402 124.333 150.811 124.21 151.232 124.129C151.647 124.041 152.073 124 152.5 124C152.927 124 153.348 124.041 153.763 124.129C154.183 124.21 154.593 124.333 154.984 124.497C155.382 124.661 155.756 124.859 156.107 125.099C156.463 125.333 156.79 125.602 157.094 125.906C157.393 126.204 157.667 126.537 157.901 126.888C158.141 127.244 158.339 127.618 158.503 128.016C158.667 128.407 158.79 128.817 158.871 129.232C158.953 129.652 159 130.073 159 130.5Z" fill="white"/>
</svg>
