<svg width="260" height="256" viewBox="0 0 260 256" fill="none" xmlns="http://www.w3.org/2000/svg">
<path d="M100.983 156.208L91.2383 169.219C89.1693 171.972 89.7554 175.91 92.5306 177.962L93.2155 178.467C94.3383 179.294 95.6518 179.7 96.9582 179.7C98.8789 179.7 100.786 178.831 102.014 177.185L111.759 164.181C113.828 161.421 113.249 157.49 110.474 155.437L109.789 154.926C108.666 154.099 107.353 153.7 106.046 153.7C104.119 153.7 102.212 154.569 100.983 156.208Z" fill="white"/>
<mask id="mask0_10_214" style="mask-type:luminance" maskUnits="userSpaceOnUse" x="105" y="168" width="19" height="22">
<path d="M105.575 168.127H123.786V189.312H105.575V168.127Z" fill="white"/>
</mask>
<g mask="url(#mask0_10_214)">
<path d="M112.772 170.398L106.643 179.192C104.944 181.63 105.419 185.117 107.705 186.93L109.333 188.222C110.258 188.958 111.346 189.312 112.421 189.312C114.003 189.312 115.573 188.548 116.583 187.089L122.718 178.296C124.418 175.858 123.936 172.371 121.65 170.558L120.022 169.259C119.097 168.53 118.016 168.175 116.941 168.175C115.358 168.175 113.788 168.939 112.772 170.398Z" fill="white"/>
</g>
<path d="M79.2319 142.505L76.9035 140.635C76.1171 140.005 75.2018 139.7 74.2864 139.7C72.9471 139.7 71.6139 140.356 70.76 141.603L66.865 147.252C65.4213 149.347 65.8267 152.337 67.7681 153.895L70.0965 155.772C70.8829 156.402 71.7982 156.7 72.7136 156.7C74.0529 156.7 75.3799 156.044 76.24 154.797L80.135 149.148C81.5787 147.053 81.1733 144.063 79.2319 142.505Z" fill="white"/>
<path d="M98.4355 142C97.2987 141.124 95.968 140.693 94.6439 140.7C92.698 140.7 90.7654 141.618 89.5216 143.363L78.2538 159.111C76.1607 162.038 76.7492 166.217 79.5645 168.4C80.7013 169.276 82.032 169.7 83.3561 169.7C85.1148 169.7 86.8534 168.949 88.0905 167.524C88.2778 167.197 88.4851 166.87 88.7125 166.557L94.0622 159.076L97.9407 153.646C98.2082 153.278 98.4957 152.923 98.81 152.596L99.7462 151.282C101.839 148.355 101.251 144.183 98.4355 142Z" fill="white"/>
<mask id="mask1_10_214" style="mask-type:luminance" maskUnits="userSpaceOnUse" x="40" y="67" width="43" height="64">
<path d="M40 67H82.5184V130.125H40V67Z" fill="white"/>
</mask>
<g mask="url(#mask1_10_214)">
<path d="M67.3752 69.1741L40.9249 119.713C40.0847 121.318 40.6253 123.339 42.1233 124.235L51.2549 129.688C52.7594 130.584 54.6548 130.007 55.4885 128.41L81.9388 77.8705C82.779 76.2659 82.2384 74.2446 80.7403 73.3486L71.6088 67.896C70.1042 67 68.2089 67.5765 67.3752 69.1741Z" fill="white"/>
</g>
<mask id="mask2_10_214" style="mask-type:luminance" maskUnits="userSpaceOnUse" x="178" y="69" width="42" height="64">
<path d="M178.192 69.7854H220V132.501H178.192V69.7854Z" fill="white"/>
</mask>
<g mask="url(#mask2_10_214)">
<path d="M178.589 80.2044L205.039 130.744C205.879 132.341 207.775 132.918 209.273 132.022L218.404 126.569C219.909 125.673 220.443 123.652 219.603 122.054L193.159 71.515C192.319 69.9105 190.423 69.3409 188.925 70.2369L179.787 75.6895C178.289 76.5786 177.749 78.6069 178.589 80.2044Z" fill="white"/>
</g>
<path d="M189.996 148.708C190.074 146.383 189.045 144.176 187.288 142.771L173.475 131.705C168.48 127.989 162.252 123.726 154.962 119.041C144.683 112.439 134.993 106.723 130.502 104.114C129.801 103.706 128.982 103.595 128.208 103.81L123.16 105.208C122.413 105.415 121.77 105.9 121.338 106.571L121.331 106.578C119.928 108.744 118.374 110.737 116.703 112.495C114.742 114.557 112.658 116.266 110.514 117.581C107.938 119.159 105.296 120.155 102.641 120.536C102.057 120.626 101.467 120.668 100.89 120.668C98.8055 120.668 96.8715 120.1 95.285 119.034C93.2528 117.671 91.9482 115.664 91.5155 113.242C91.0173 110.446 91.6991 107.249 93.6133 103.464C94.9573 100.806 96.6421 98.3705 97.868 96.592C98.1696 96.1561 98.4252 95.7824 98.635 95.471C99.4807 94.1976 100.464 92.7444 101.572 91.2289C101.847 90.8413 101.552 90.2877 101.093 90.3431C98.7727 90.6199 93.5281 90.3431 85.281 84.9384C84.5467 84.4609 83.5831 84.7238 83.1635 85.5197L60.2971 128.771C59.8119 129.678 59.9299 130.813 60.5855 131.588L66.6496 138.799C66.7282 138.895 66.8266 138.985 66.9249 139.061L67.5346 138.203C68.3672 137.02 69.4751 136.051 70.7272 135.401C71.9269 134.778 73.2774 134.453 74.6148 134.453C75.5457 134.453 76.457 134.605 77.3354 134.902C78.2467 135.221 79.0989 135.684 79.8725 136.286L82.3637 138.245C83.3143 138.999 84.101 139.927 84.6975 141.006C84.8418 141.262 84.9663 141.525 85.0843 141.788C85.2417 142.141 85.694 142.189 85.9169 141.878L86.2447 141.407C87.228 140.016 88.5195 138.875 89.9946 138.113C91.4106 137.387 93.0233 136.999 94.577 136.999C95.6587 136.999 96.747 137.172 97.7828 137.532C98.8514 137.899 99.8609 138.446 100.772 139.158C101.893 140.044 102.818 141.138 103.519 142.404C104.194 143.629 104.64 144.964 104.83 146.369C104.968 147.345 104.981 148.321 104.87 149.29C104.824 149.684 105.119 150.037 105.492 150.023C105.604 150.016 105.715 150.016 105.833 150.016C106.862 150.016 107.911 150.189 108.901 150.528C109.937 150.881 110.894 151.407 111.766 152.092L112.402 152.597C115.516 155.047 116.886 159.068 116.27 162.86C116.191 163.338 116.552 163.781 117.011 163.774C117.037 163.774 117.063 163.774 117.089 163.774C118.066 163.774 119.036 163.933 119.967 164.251C120.931 164.583 121.836 165.082 122.655 165.718L124.294 167.012C128.431 170.272 129.29 176.458 126.208 180.832L125.402 181.981C125.022 182.521 125.114 183.296 125.625 183.69C125.71 183.759 125.809 183.822 125.92 183.856C127.756 184.548 145.482 190.915 150.497 181.981C150.825 181.393 150.602 180.631 150.019 180.334L133.485 171.787C132.489 171.268 131.964 170.064 132.286 168.943C132.522 168.126 133.197 167.386 134.836 167.317C135.006 167.303 135.177 167.344 135.334 167.434L152.346 176.811C154.254 177.863 156.424 178.306 158.561 178.029C161.177 177.683 164.029 176.258 164.278 171.732C164.343 170.549 163.766 169.421 162.796 168.825L141.569 155.753C140.743 155.248 140.297 154.244 140.454 153.248C140.605 152.307 141.077 151.359 142.381 151.303C142.808 151.29 143.227 151.407 143.594 151.636L165.897 165.338C167.018 166.023 168.303 166.362 169.594 166.293C171.823 166.189 175.081 165.469 176.366 162.403C177.501 159.705 176.504 156.535 174.105 155.013L149.685 139.525C148.963 139.068 148.544 138.231 148.596 137.338C148.668 136.169 149.232 134.847 151.501 135.228C151.776 135.276 152.038 135.38 152.281 135.532L180.018 153.006C182.076 154.307 184.607 154.521 186.816 153.525C188.455 152.777 189.911 151.373 189.996 148.708Z" fill="white"/>
<path d="M198.9 129.695L176.139 85.6793C175.952 85.3314 175.572 85.1645 175.217 85.2758C173.58 85.8045 171.536 86.3402 171.24 86.3749C170.363 86.4932 169.48 86.5489 168.597 86.5489C165.599 86.5489 162.602 85.9088 159.772 84.8584C153.178 82.4095 144.978 81.7 137.662 81.7C132.253 81.7 127.322 82.0895 123.893 82.4374C121.063 82.7296 118.31 82.9522 115.57 83.8218C112.992 84.6427 110.787 86.5419 108.989 88.6498C108.512 89.2064 108.048 89.7699 107.59 90.3473C105.746 92.6778 104.038 95.1614 102.414 97.652C100.035 101.311 92.4415 111.308 97.9788 115.121C98.9651 115.795 100.138 116.074 101.311 116.074C101.705 116.074 102.098 116.039 102.485 115.983C106.913 115.329 110.884 112.47 113.998 109.131C115.5 107.51 116.86 105.722 118.059 103.823C118.259 103.496 119.077 101.555 119.419 101.457L127.025 99.3007L129.572 98.5842C129.636 98.5633 129.707 98.5564 129.778 98.5564C129.913 98.5564 130.042 98.5911 130.165 98.6607C134.084 100.956 168.268 121.215 187.884 139.511C188.155 139.762 188.554 139.762 188.832 139.518L198.855 130.613C199.029 130.342 199.049 129.987 198.9 129.695Z" fill="white"/>
</svg>
