<svg width="260" height="256" viewBox="0 0 260 256" fill="none" xmlns="http://www.w3.org/2000/svg">
<mask id="mask0_11_237" style="mask-type:luminance" maskUnits="userSpaceOnUse" x="42" y="74" width="176" height="107">
<path d="M42 74H217.41V181H42V74Z" fill="white"/>
</mask>
<g mask="url(#mask0_11_237)">
<path d="M108.455 103.258C108.496 103.217 108.537 103.194 108.583 103.153C108.624 103.13 108.519 103.217 108.455 103.258ZM108.455 103.258L108.432 103.281C108.409 103.281 108.432 103.258 108.455 103.258ZM132.368 88.3982C132.752 87.7587 132.071 86.7766 131.792 86.6258C130.833 86.1142 128.787 86.5847 128.166 86.667C128.083 86.6898 127.997 86.6898 127.91 86.7126C126.886 86.9456 125.95 87.4618 125.201 88.1881L122.236 91.372L115.133 98.4706C114.105 99.4938 112.89 100.289 111.547 100.736C110.867 100.969 110.117 101.294 109.373 101.76C109.053 101.956 108.816 102.125 108.605 102.276C109.117 103.879 110.588 106.638 116.412 105.93C124.753 104.925 135.826 99.4299 135.826 99.4299L153.193 90.2163L155.518 89.1291C155.624 88.7637 155.71 88.2932 155.56 87.7998C155.56 87.7998 155.432 87.3522 155.089 86.9913C154.345 86.1782 151.805 86.1965 148.671 87.0324C146.597 87.8227 144.998 88.5946 144.039 89.0651C139.581 91.2852 128.805 97.4017 125.95 98.9182C125.48 99.174 124.52 99.4938 124.05 99.4116C123.748 99.3476 123.986 98.7675 123.986 98.7675C123.986 98.7675 131.984 89.0423 132.368 88.3982ZM171.968 89.5539C171.241 89.0423 170.387 88.7408 169.51 88.6769L167.975 88.549C167.423 88.5078 166.888 88.485 166.335 88.5078L164.01 88.5946C161.895 88.6586 159.762 89.2981 157.844 90.198L155.025 91.5227L152.7 92.6099L135.337 101.846C135.337 101.846 124.264 107.342 115.919 108.347C110.095 109.05 108.345 106.506 107.834 104.902C107.623 104.222 107.623 103.728 107.623 103.687C107.623 103.687 107.24 102.938 108.902 99.0461C109.711 97.1459 109.693 94.4279 109.327 92.6327C109.135 91.6734 108.688 90.7964 108.071 90.0701C107.45 89.3621 106.618 88.8048 105.7 88.485C104.677 88.1424 103.59 88.1013 102.544 88.3343H102.521C100.968 88.6997 99.666 89.7686 99.0447 91.2441C98.7889 91.8653 98.5742 92.5277 98.3641 93.1443V93.1672C98.0215 94.2589 97.6607 95.9034 97.551 97.0591C97.4231 98.4066 97.3181 99.9004 97.3181 100.969C97.2952 102.426 96.3999 104.368 95.6553 105.715C95.1209 106.702 94.3078 107.492 93.3485 108.045C92.0466 108.794 90.4889 109.886 89.0592 111.512C86.8848 113.947 85.8844 116.427 84.6648 119.826C83.1939 123.951 83.6827 125.193 82.0839 127.993C81.4855 129.039 80.7409 130.067 76.6252 133.571C77.9864 134.297 80.0603 136.028 82.9792 139.13C86.0535 142.378 89.3378 146.357 91.1741 149.07C91.2564 149.18 91.3203 149.307 91.4071 149.413C91.7908 149.093 92.1745 148.75 92.5582 148.408C97.1262 144.347 97.6607 143.365 102.352 139.217C108.432 133.827 113.722 130.044 115.197 128.998C119.911 125.664 121.341 125.065 126.973 120.918C129.554 119.013 131.537 117.455 133.542 115.87C140.755 110.183 140.307 110.119 144.144 107.255C144.656 106.871 151.398 101.846 158.588 98.3609C160.721 97.3377 162.238 96.5886 164.412 95.9262C167.464 95.0081 167.742 94.8345 168.254 94.7705C168.852 94.7066 170.922 94.3868 171.712 93.8524C171.881 93.7427 173.183 92.8246 173.137 91.477C173.119 90.6457 172.562 90.0016 171.968 89.5539ZM89.1049 150.162C87.2685 147.448 83.9842 143.47 80.9099 140.222C77.9864 137.143 75.9171 135.412 74.5559 134.663C74.2772 134.512 74.0214 134.384 73.7839 134.32C73.2723 134.151 72.8886 134.192 72.6556 134.425L70.2026 136.759L69.3712 137.55L68.814 136.969L45.5402 158.475L67.7907 180.945L90.023 159.352L87.2457 156.406L88.3785 155.337L90.5346 153.282C90.8087 153.003 90.3199 151.957 89.3607 150.504C89.2739 150.376 89.1871 150.267 89.1049 150.162ZM216.254 74.0548H43.1511C42.5116 74.0548 42 74.571 42 75.2105V77.4351C42 78.0746 42.5116 78.5862 43.1511 78.5862H50.4462L58.2528 83.7389C58.8512 84.1454 59.5547 84.3601 60.2582 84.3601H199.101C199.805 84.3601 200.513 84.1454 201.107 83.7389L208.918 78.5862H216.213C216.853 78.5862 217.364 78.0746 217.364 77.4351V75.2105C217.41 74.571 216.894 74.0548 216.254 74.0548Z" fill="white"/>
</g>
</svg>
