<svg width="260" height="256" viewBox="0 0 260 256" fill="none" xmlns="http://www.w3.org/2000/svg">
<path d="M152.8 48.8834C153.464 48.6885 153.688 48.2987 153.912 47.7139C154.136 47.1366 153.912 46.5519 153.464 46.162C153.016 45.7722 152.352 45.3823 151.232 45.1949C151.008 45.1949 150.784 45 150.56 45C150.344 45 150.12 45 150.12 45L149 48.2987L149.896 48.4936C151.232 49.0783 152.128 49.0783 152.8 48.8834Z" fill="black"/>
<path d="M137.528 207.002C137.317 206.6 137.106 206.198 136.894 205.796C136.683 205.394 136.683 205.201 136.472 205C136.472 205.201 136.26 205.394 136.26 205.796C136.26 206.198 136.049 206.6 135.837 207.002C135.634 207.403 135.634 207.998 135.423 208.4C135.211 209.003 135 209.405 135 210L139 209.598C138.789 209.003 138.577 208.601 138.154 207.998C137.943 207.798 137.74 207.403 137.528 207.002Z" fill="black"/>
<path d="M138.577 47.15C138.366 46.5929 138.366 46.2214 138.154 45.85C137.943 45.4786 137.943 45.1143 137.74 44.7429C137.74 44.3714 137.528 44.1857 137.528 44C137.528 44.1857 137.317 44.3714 137.106 44.7429C136.894 45.1143 136.683 45.3 136.472 45.85C136.26 46.2214 136.049 46.5929 135.837 47.15C135.634 47.7 135.423 48.0714 135 48.6286L139 49C139 48.0714 138.789 47.5143 138.577 47.15Z" fill="black"/>
<path d="M150.988 202.102C150.432 201.856 149.869 202.102 148.931 202.348C148.751 202.348 148.563 202.594 148.375 202.594C148.188 202.594 148 202.839 148 202.839L148.751 207L149.494 206.754C150.432 206.508 151.176 206.017 151.551 205.534C151.926 205.043 152.114 204.305 151.926 203.568C151.739 202.839 151.363 202.348 150.988 202.102Z" fill="black"/>
<mask id="mask0_11_247" style="mask-type:luminance" maskUnits="userSpaceOnUse" x="33" y="31" width="194" height="194">
<path d="M33 31H227V225H33V31Z" fill="white"/>
</mask>
<g mask="url(#mask0_11_247)">
<path d="M130.126 31C76.5505 31 33 74.5584 33 128.134C33 181.71 76.5505 225.26 130.126 225.26C183.702 225.26 227.26 181.71 227.26 128.134C227.26 74.5584 183.702 31 130.126 31ZM184.318 59.0154C184.318 59.6311 184.318 60.2468 184.318 61.0599C184.318 61.8809 184.318 62.6939 184.318 63.5149C184.318 64.3359 184.113 65.3542 184.113 66.1751C184.113 67.1934 183.907 68.0144 183.907 68.8354L189.023 62.6939L191.264 64.7384L182.479 74.9689L180.434 73.327C180.837 71.4877 181.042 69.8537 181.247 68.0144C181.452 66.1751 181.452 64.3359 181.452 62.6939L175.729 69.4432L173.479 67.6039L182.273 57.3813L184.318 59.0154ZM194.746 128.134C194.746 163.712 165.704 192.746 130.126 192.746C94.5486 192.746 65.507 163.712 65.507 128.134C65.507 92.5486 94.5486 63.5149 130.126 63.5149C165.704 63.5149 194.746 92.5486 194.746 128.134ZM169.801 53.0871C170.614 52.4714 171.435 51.8635 172.453 51.2478L174.908 52.6766C174.908 53.7028 174.703 54.7211 174.703 55.7473C174.498 56.7656 174.498 57.9971 174.293 59.0154C174.095 60.2468 173.89 61.4704 173.685 62.6939C173.479 63.9254 173.274 65.3542 172.864 66.9882L169.998 65.3542C169.998 64.9437 170.204 64.3359 170.204 63.9254C170.204 63.3097 170.409 62.8992 170.409 62.2913L165.909 59.6311C165.507 60.0416 165.096 60.2468 164.686 60.6494C164.275 61.0599 163.865 61.2651 163.462 61.6756L160.802 60.0416C162.025 59.0154 163.052 58.2023 164.07 57.1761C165.096 56.3551 166.114 55.5421 166.935 54.7211C167.954 54.3106 168.775 53.7028 169.801 53.0871ZM164.686 47.364L159.57 59.8363L156.713 58.8101L161.82 46.3378L164.686 47.364ZM148.124 42.2488C148.732 42.2488 149.553 42.454 150.169 42.454C150.777 42.6593 151.392 42.6593 152.008 42.8645C154.053 43.4723 155.276 44.0881 156.302 45.1143C157.115 46.1326 157.321 47.364 156.918 48.7928C156.713 49.6138 156.302 50.4268 155.687 50.8373C155.071 51.2478 154.463 51.6583 153.437 51.6583C153.642 52.0609 153.847 52.4714 154.053 53.0871C154.258 53.4976 154.463 54.1054 154.463 54.7211C154.668 55.3368 154.668 55.7473 154.874 56.3551C155.071 56.9709 155.071 57.3813 155.276 57.9971L152.008 57.1761C151.803 56.7656 151.803 56.1499 151.598 55.7473C151.392 55.3368 151.392 54.7211 151.187 54.3106C150.982 53.908 150.982 53.2923 150.777 52.8818C150.579 52.4714 150.374 52.0609 150.374 51.6583L148.937 51.2478L147.714 55.9526L144.848 55.1316L148.124 42.2488ZM133.402 46.3378C134.01 45.3195 134.421 44.2933 135.036 43.275C135.447 42.2488 136.055 41.4278 136.67 40.6147L139.536 40.82C139.946 41.8383 140.144 42.8645 140.554 43.8828C140.965 44.909 141.17 45.9273 141.58 47.1588C141.991 48.1771 142.188 49.4085 142.599 50.8373C143.009 52.0609 143.214 53.4976 143.625 54.9263L140.349 54.5159C140.144 54.1054 140.144 53.4976 139.946 53.0871C139.741 52.6766 139.741 52.0609 139.536 51.6583L134.215 51.0426C134.01 51.453 133.805 52.0609 133.607 52.4714C133.402 52.8818 133.197 53.4976 132.992 53.908L129.921 53.7028C130.537 52.2661 131.153 51.0426 131.76 49.8111C132.376 48.5876 132.787 47.364 133.402 46.3378ZM130.742 40.2043L130.947 42.8645L126.858 43.0697L127.466 53.908L124.403 54.1054L123.788 43.275L119.698 43.4723L119.493 40.82L130.742 40.2043ZM116.43 41.4278L117.038 43.8828L111.11 45.1143L111.726 47.7666L117.038 46.7483L117.654 49.2033L112.333 50.2216L112.949 53.4976L119.288 52.0609L119.904 54.5159L110.494 56.5604L107.637 43.275L116.43 41.4278ZM94.9591 49.4085C95.3617 48.5876 95.7721 47.9718 96.3879 47.364C97.0036 46.7483 97.8166 46.3378 98.6376 45.9273C99.2533 45.7221 99.8612 45.5168 100.272 45.3195C100.682 45.1143 101.298 45.1143 101.7 45.1143C102.111 45.1143 102.316 45.1143 102.727 45.1143C102.932 45.1143 103.137 45.1143 103.342 45.1143V47.7666C102.932 47.7666 102.316 47.7666 101.7 47.7666C101.093 47.7666 100.477 47.9718 100.066 48.1771C98.8429 48.7928 98.0219 49.4085 97.6114 50.4268C97.4062 51.453 97.4062 52.4714 97.8166 53.7028C98.0219 54.3106 98.4324 54.9264 98.6376 55.3368C99.0481 55.7473 99.4586 56.1499 99.8612 56.3551C100.272 56.5604 100.682 56.7656 101.298 56.7656C101.906 56.7656 102.316 56.7656 102.932 56.5604C103.342 56.3551 103.548 56.3551 103.745 56.1499C103.95 56.1499 104.155 55.9526 104.361 55.9526L102.727 51.6583L105.592 50.6321L108.039 56.7656C107.842 56.9709 107.226 57.3813 106.61 57.7918C105.995 58.2023 104.976 58.6049 103.95 59.0154C102.932 59.4259 102.111 59.6311 101.298 59.6311C100.477 59.6311 99.6559 59.4259 98.8429 59.2206C98.0219 58.8101 97.4062 58.3997 96.7983 57.5866C96.1826 56.9709 95.5669 55.9526 95.1643 54.9263C94.7538 53.908 94.5486 52.8818 94.5486 51.8635C94.3433 51.0426 94.5486 50.2216 94.9591 49.4085ZM89.2281 50.4268L90.4596 52.6766L85.3443 55.7473L86.7731 57.9971L91.4779 55.1316L92.7093 57.1761L88.0046 60.0416L89.6386 62.8992L95.1643 59.6311L96.3879 61.8809L88.2098 66.7909L81.2553 55.1316L89.2281 50.4268ZM70.6222 63.7201C71.238 64.1306 72.051 64.5411 72.872 65.1489C73.693 65.5594 74.506 66.1751 75.327 66.5856C76.1401 66.9882 76.961 67.6039 77.782 68.0144C78.5951 68.4249 79.2108 68.8354 79.8265 69.0327C79.6213 68.4249 79.416 67.6039 79.0055 66.7909C78.8003 65.9699 78.3898 65.1489 77.9872 64.1306C77.5767 63.3097 77.3715 62.2913 76.961 61.4704C76.5505 60.6494 76.3453 59.8363 75.9427 59.0154L78.3898 56.9709C78.8003 57.7918 79.0055 58.8101 79.416 59.8363C79.8265 60.8547 80.237 62.0861 80.6396 63.3097C81.05 64.5411 81.4605 65.7646 81.871 66.9882C82.2815 68.2196 82.6841 69.4432 82.8893 70.6746L80.6396 72.5139C79.416 71.8982 78.3898 71.4877 77.1663 70.8799C75.9427 70.2642 74.9165 69.6484 73.693 69.0327C72.4615 68.4249 71.4432 67.8092 70.417 67.1934C69.3987 66.5856 68.5777 66.1751 67.7568 65.5594L70.6222 63.7201ZM68.783 180.479C68.3725 180.684 67.962 180.889 67.5515 180.889C66.9437 180.889 66.328 180.684 65.9175 180.068C54.0609 165.346 47.5168 146.945 47.5168 127.929C47.5168 109.323 53.4451 91.7355 64.8992 77.2187C65.507 76.3977 66.9437 76.1925 67.7568 76.8082C68.5777 77.4239 68.783 78.8527 68.1672 79.6658C57.3289 93.5748 51.6059 110.136 51.6059 127.929C51.6059 145.919 57.9447 163.507 69.1934 177.416C69.8013 178.434 69.596 179.871 68.783 180.479ZM75.327 197.04L73.0772 195.201C73.2825 193.977 73.693 192.746 74.0955 191.522C74.506 190.298 74.9165 189.067 75.327 187.843C75.7375 186.612 76.1401 185.389 76.5505 184.362C76.961 183.344 77.3715 182.318 77.5767 181.505L80.237 183.549C80.0317 184.362 79.6213 185.183 79.2108 186.004C78.8003 186.817 78.5951 187.843 78.1846 188.657C77.782 189.478 77.5767 190.504 77.1663 191.317C76.961 192.138 76.5505 192.951 76.5505 193.567C77.1663 193.361 77.782 192.951 78.5951 192.548C79.416 192.138 80.237 191.727 81.05 191.112C81.871 190.701 82.6841 190.093 83.505 189.683C84.326 189.272 85.1391 188.657 85.7548 188.254L88.2098 190.298C87.3888 190.701 86.5758 191.317 85.5496 191.933C84.5234 192.548 83.505 193.156 82.2815 193.772C81.2553 194.388 80.0317 194.995 78.8003 195.611C77.5767 195.816 76.5505 196.432 75.327 197.04ZM92.2988 201.137L87.5941 198.477L85.96 201.334L91.6831 204.61L90.4596 206.86L82.2815 202.155L89.0229 190.504L96.7983 194.995L95.5669 197.245L90.2543 194.182L88.8176 196.432L93.5224 199.092L92.2988 201.137ZM98.2271 206.244C98.4324 206.655 98.6376 207.065 99.0481 207.476C99.4586 207.878 99.8612 208.083 100.477 208.289C100.887 208.494 101.093 208.494 101.298 208.494C101.503 208.494 101.7 208.699 101.906 208.699L103.548 204.405L106.405 205.431L103.95 211.565C103.548 211.565 102.932 211.565 102.111 211.359C101.298 211.154 100.272 210.949 99.2533 210.538C98.2271 210.128 97.4062 209.725 96.7983 209.11C96.1826 208.494 95.5669 207.878 95.3617 207.065C95.1643 206.244 94.9591 205.431 94.9591 204.61C94.9591 203.584 95.1643 202.771 95.5669 201.745C95.9774 200.726 96.5931 199.905 97.2088 199.092C97.8166 198.477 98.6376 197.861 99.2533 197.45C100.066 197.04 100.887 196.843 101.7 197.04C102.521 197.245 103.548 197.245 104.361 197.45C104.976 197.656 105.387 197.861 105.995 198.271C106.405 198.477 106.816 198.887 107.226 199.092C107.431 199.29 107.842 199.495 108.039 199.7C108.244 199.905 108.45 200.111 108.45 200.111L106.816 202.155C106.405 201.745 106.2 201.539 105.592 201.137C105.182 200.726 104.566 200.521 103.95 200.316C102.727 199.905 101.503 199.905 100.682 200.316C99.8612 200.726 99.0481 201.745 98.6376 202.976C98.4324 203.584 98.2271 204.2 98.2271 204.815C98.0219 205.226 98.0219 205.834 98.2271 206.244ZM118.878 204.405L112.949 203.181L112.539 205.834L117.859 206.86L117.449 209.315L112.136 208.289L111.52 211.565L117.859 212.993L117.243 215.448L107.842 213.404L110.494 200.111L119.493 201.95L118.878 204.405ZM127.261 205.226L126.653 216.064L123.582 215.859L124.198 205.021L120.109 204.815L120.314 202.155L131.555 202.771L131.358 205.431L127.261 205.226ZM141.17 215.448C140.965 215.038 140.759 214.627 140.554 214.02C140.349 213.609 140.144 212.993 139.946 212.583L134.626 212.993C134.421 213.404 134.421 214.02 134.215 214.422C134.01 214.833 134.01 215.448 133.805 215.859L130.742 216.064C131.153 214.627 131.555 213.199 131.76 211.967C132.171 210.744 132.376 209.52 132.787 208.289C133.197 207.27 133.402 206.039 133.805 205.021C134.215 203.994 134.421 202.976 134.831 201.95L137.697 201.745C138.304 202.566 138.715 203.584 139.331 204.405C139.741 205.431 140.349 206.244 140.965 207.476C141.58 208.494 141.991 209.725 142.599 210.744C143.214 211.967 143.83 213.199 144.438 214.627L141.17 215.448ZM154.874 212.583C154.463 212.172 154.258 211.77 153.847 211.565C153.437 211.154 153.026 210.744 152.829 210.538C152.419 210.128 152.008 209.923 151.803 209.52C151.392 209.315 151.187 208.904 150.777 208.699L149.348 209.11L150.579 213.814L147.714 214.627L144.438 201.745C145.054 201.539 145.669 201.137 146.285 200.932C146.893 200.726 147.509 200.521 148.124 200.316C150.169 199.905 151.598 199.7 152.829 200.111C154.053 200.521 154.874 201.539 155.276 202.976C155.481 203.789 155.481 204.61 155.276 205.431C155.071 206.039 154.463 206.655 153.847 207.27C154.258 207.476 154.668 207.878 154.874 208.083C155.276 208.494 155.687 208.699 156.097 209.11C156.508 209.52 156.918 209.923 157.321 210.333C157.731 210.744 158.142 211.154 158.347 211.565L154.874 212.583ZM160.802 210.538L155.892 198.066L158.757 197.04L163.66 209.52L160.802 210.538ZM175.524 203.584C175.114 203.181 174.703 202.976 174.498 202.566C174.095 202.155 173.685 201.95 173.274 201.539L168.569 203.994C168.569 204.61 168.775 205.021 168.775 205.628C168.775 206.244 168.98 206.655 168.98 207.065L166.114 208.494C165.909 207.065 165.704 205.628 165.507 204.2C165.301 202.976 165.096 201.745 165.096 200.521C164.891 199.29 164.891 198.271 164.686 197.245C164.686 196.227 164.48 195.201 164.48 194.182L166.935 192.746C167.756 193.361 168.569 193.977 169.39 194.593C170.204 195.201 171.024 196.022 172.043 196.637C172.864 197.45 173.89 198.271 174.908 199.092C175.934 199.905 176.953 200.932 178.184 201.95L175.524 203.584ZM187.996 194.388C186.362 193.772 184.728 193.156 182.881 192.548C181.247 191.933 179.408 191.522 177.774 191.317L183.292 198.271L181.042 200.111L172.453 189.683L174.293 188.049C174.908 188.049 175.524 188.254 176.337 188.459C177.158 188.657 177.979 188.862 178.792 189.067C179.613 189.272 180.631 189.478 181.452 189.683C182.273 189.888 183.292 190.093 183.907 190.504L178.997 184.362L181.247 182.523L189.836 192.951L187.996 194.388ZM194.335 180.273C193.925 180.684 193.317 181.094 192.701 181.094C192.291 181.094 191.88 180.889 191.47 180.684C190.657 180.068 190.451 178.639 191.264 177.818C202.513 163.917 208.852 146.33 208.852 128.339C208.852 110.752 203.129 93.9853 192.291 80.0763C191.47 79.0579 191.675 77.8265 192.496 77.0134C193.317 76.3977 194.746 76.3977 195.361 77.4239C206.807 91.9408 212.736 109.52 212.736 128.134C212.736 147.151 206.192 165.551 194.335 180.273Z" fill="black"/>
</g>
<path d="M168.903 197.554C168.425 197.33 168.186 196.893 167.708 196.67C167.478 196.446 167.239 196.223 167 196C167 196.223 167 196.446 167.239 196.893C167.239 197.33 167.478 197.777 167.478 198.223C167.478 198.67 167.708 199.339 167.708 200C167.708 200.67 167.947 201.339 167.947 202L172 200C171.522 199.554 171.044 199.116 170.327 198.67C169.619 198.446 169.142 198 168.903 197.554Z" fill="black"/>
<path d="M171.433 58.3357C171.433 57.7786 171.624 57.4071 171.624 56.85C171.624 56.4786 171.816 56.1143 171.816 55.7429C171.816 55.3714 171.816 55.1857 172 55C171.816 55.1857 171.624 55.3714 171.433 55.5571C171.241 55.7429 170.858 55.9286 170.475 56.3C170.092 56.4786 169.716 56.85 169.333 57.2214C168.95 57.5929 168.567 57.9643 168 58.3357L171.05 60C171.241 59.2571 171.241 58.7 171.433 58.3357Z" fill="black"/>
<path d="M147.997 117.328C147.997 119.581 147.792 121.629 147.586 123.677C143.905 126.746 140.223 130.438 136.945 134.945C134.283 138.63 132.237 142.315 130.396 146C129.78 144.569 129.171 143.343 128.35 141.904C126.92 122.855 129.582 106.265 129.377 99.5047C125.893 111.793 124.258 124.089 124.052 135.151C120.782 130.644 117.092 126.746 113.205 123.677C113 121.835 113 120.198 113 118.348C113.205 96.8399 124.258 82.2982 129.377 76.771C130.396 75.743 132.031 75.743 132.853 76.771C137.561 82.0926 148.202 96.4366 147.997 117.328Z" fill="black"/>
<path d="M168.633 157.137C158.453 170.959 145.011 176.731 136.663 179V173.228C136.663 172.4 136.663 171.373 136.459 170.338C146.646 151.986 160.081 138.371 164.153 132.392C152.346 141.667 142.771 153.013 135.649 163.116C135.036 159.613 134.218 155.903 133 152.193C134.627 147.447 137.276 142.495 140.735 137.75C153.163 120.425 170.669 115.481 177.39 114.032C178.617 113.825 179.631 114.653 179.835 115.887C180.244 122.487 180.849 140.433 168.633 157.137Z" fill="black"/>
<path d="M132 173.033C124.522 161.147 112.67 144.968 96.2532 132.473C101.036 139.44 118.913 156.64 129.513 180C122.652 178.766 104.566 174.259 91.6796 157.051C79.2103 140.46 79.6275 122.635 80.2454 115.882C80.454 114.648 81.4971 113.826 82.7409 114.031C89.6013 115.471 107.479 120.587 120.157 137.589C129.922 150.906 132 164.635 132 173.033Z" fill="black"/>
</svg>
