<svg width="260" height="256" viewBox="0 0 260 256" fill="none" xmlns="http://www.w3.org/2000/svg">
<path fill-rule="evenodd" clip-rule="evenodd" d="M67.1452 80.1204C66.7201 80.1482 66.3438 80.3712 66.0999 80.7057C40.1008 116.022 47.5082 165.727 82.6568 191.942C83.27 192.423 84.1829 192.291 84.6428 191.67C85.1097 191.036 84.9773 190.144 84.3431 189.677C50.4071 164.382 43.2714 116.461 68.3786 82.3712C69.0963 81.4025 68.3507 80.0367 67.1452 80.1204Z" fill="black"/>
<path fill-rule="evenodd" clip-rule="evenodd" d="M114 150.104C123.136 149.999 128.996 154.78 130.174 161.602H130.523C132.021 152.891 141.212 147.519 155.009 151.379C151.17 166.291 141.296 171.58 132.913 167.532V178.688H127.77V167.532C119.373 171.58 109.499 166.291 105.68 151.379C108.677 150.529 111.464 150.132 114 150.104ZM114 128.885C123.638 128.787 129.645 134.111 130.341 141.54C131.219 132.16 140.599 126.133 155.009 130.153C150.773 146.62 139.17 151.421 130.341 144.78C121.505 151.421 109.903 146.62 105.68 130.153C108.677 129.31 111.464 128.913 114 128.885ZM114 107.659C123.638 107.555 129.645 112.893 130.341 120.321C131.219 110.941 140.585 104.907 155.009 108.935C150.773 125.415 139.17 130.195 130.341 123.561C121.505 130.195 109.903 125.415 105.68 108.935C108.677 108.098 111.464 107.694 114 107.659ZM130.32 77.319C142.209 89.2488 140.439 101.869 130.355 106.356C120.251 101.848 118.481 89.221 130.32 77.319ZM130.348 68.5597C114.579 68.5597 99.4644 74.8312 88.315 85.9667C77.1656 97.1162 70.908 112.231 70.908 128.007C70.908 160.828 97.5133 187.447 130.348 187.447C163.176 187.447 189.782 160.828 189.782 128.007C189.782 95.1789 163.176 68.5597 130.348 68.5597Z" fill="black"/>
<mask id="mask0_29_6" style="mask-type:luminance" maskUnits="userSpaceOnUse" x="33" y="31" width="194" height="194">
<path d="M33 31H227V225H33V31Z" fill="white"/>
</mask>
<g mask="url(#mask0_29_6)">
<path fill-rule="evenodd" clip-rule="evenodd" d="M129.993 35.662C181.03 35.662 222.352 76.9567 222.352 128C222.352 179.023 181.03 220.345 129.993 220.345C78.9705 220.345 37.648 179.023 37.648 128C37.648 76.9567 78.9705 35.662 129.993 35.662ZM129.993 30.9723C76.434 30.9723 32.9583 74.4272 32.9583 127.993C32.9583 181.552 76.434 225.035 129.993 225.035C183.559 225.035 227.042 181.552 227.042 127.993C227.042 74.4272 183.566 30.9723 129.993 30.9723Z" fill="black"/>
</g>
<path d="M93.4923 73.6675L96.0916 71.7094L89.9524 63.5215L83.7505 68.1694L85.9386 71.0892L88.8514 68.922C89.2974 69.6676 89.4507 70.4481 89.3392 71.2494C89.2207 72.2111 88.712 73.0055 87.848 73.6675C87.2138 74.1483 86.5518 74.3713 85.8968 74.3364C85.2487 74.3016 84.6216 74.1065 84.0014 73.765C83.4161 73.4236 82.8586 72.9776 82.336 72.4759C81.8273 71.9323 81.3883 71.4237 81.0329 70.9359C80.6844 70.469 80.3151 69.9185 79.904 69.2635C79.5138 68.5945 79.2211 67.9046 79.012 67.2008C78.8099 66.4831 78.7612 65.7932 78.8727 65.1451C78.9772 64.4692 79.3605 63.8908 80.0015 63.3961C80.8308 62.7898 81.5834 62.525 82.2802 62.5877C82.984 62.6435 83.7645 62.9013 84.6286 63.3891L87.1372 60.2045C86.2243 59.5774 85.3742 59.1244 84.5937 58.8806C83.7993 58.6297 83.0258 58.5391 82.2732 58.6088C80.7611 58.7621 79.4301 59.2847 78.2385 60.1697C76.9842 61.1104 76.0992 62.1418 75.5696 63.2567C75.047 64.3577 74.8031 65.4936 74.8589 66.6782C74.9007 67.828 75.1864 69.0126 75.716 70.2042C76.2386 71.3679 76.9145 72.5107 77.7577 73.6326C78.5173 74.65 79.3674 75.542 80.3012 76.3224C81.228 77.0681 82.2245 77.6186 83.2697 77.96C84.315 78.2875 85.409 78.3851 86.5449 78.2178C87.6668 78.0436 88.8026 77.521 89.9385 76.6639C90.705 76.0855 91.2973 75.4862 91.7154 74.8382C92.1335 74.1901 92.4192 73.4027 92.5656 72.441L93.4923 73.6675Z" fill="black"/>
<path d="M98.907 70.3575L110.44 65.5005L109.025 62.1348L101.367 65.3611L95.1302 50.5881L91.2488 52.2257L98.907 70.3575Z" fill="black"/>
<path d="M125.568 61.1592C126.669 59.668 127.031 57.682 126.676 55.1873L124.906 43.1041L120.746 43.7173L122.509 55.7518C122.725 57.25 122.627 58.344 122.216 59.0339C122.014 59.3614 121.701 59.6471 121.29 59.8631C120.892 60.0861 120.356 60.2464 119.701 60.33C118.46 60.5112 117.554 60.337 116.99 59.7725C116.391 59.236 115.987 58.2116 115.771 56.6855L114.021 44.686L109.847 45.2992L111.645 57.5844C112.001 59.9955 112.92 61.7446 114.419 62.8525C115.938 63.9326 117.889 64.288 120.272 63.9466C122.711 63.5842 124.474 62.6644 125.568 61.1592Z" fill="black"/>
<path d="M140.843 47.6127L145.811 48.1492L146.202 44.5466L132.104 43.0205L131.721 46.6301L136.662 47.1597L134.941 63.1313L139.129 63.5842L140.843 47.6127Z" fill="black"/>
<path d="M146.222 64.7063L158.982 69.2009L160.187 65.7515L151.407 62.6576L153.003 58.1351L159.191 60.2883L160.389 56.9017L154.201 54.7206L155.525 50.9785L164.006 53.968L165.211 50.5256L152.759 46.1285L146.222 64.7063Z" fill="black"/>
<path d="M170.716 76.8382L173.971 79.0889L185.148 62.8874L181.838 60.5948L174.835 70.7478L175.991 56.5532L172.486 54.1351L161.302 70.3297L164.612 72.6153L171.943 61.9885L170.716 76.8382Z" fill="black"/>
<path fill-rule="evenodd" clip-rule="evenodd" d="M193.538 80.1204C193.956 80.1482 194.339 80.3712 194.59 80.7057C220.589 116.022 213.181 165.727 178.04 191.942C177.413 192.423 176.514 192.291 176.047 191.67C175.58 191.036 175.712 190.144 176.34 189.677C210.29 164.382 217.418 116.461 192.311 82.3712C191.572 81.4025 192.339 80.0367 193.538 80.1204Z" fill="black"/>
<path d="M96.9698 191.601L104.656 195.322L106.245 192.047L94.7748 186.486L86.1897 204.213L89.9805 206.039L93.6598 198.444L99.4366 201.21L100.977 197.963L95.2347 195.182L96.9698 191.601Z" fill="black"/>
<path d="M120.767 199.37C120.976 199.6 121.108 199.872 121.185 200.214C121.262 200.548 121.262 200.938 121.199 201.384C121.122 201.893 120.948 202.276 120.718 202.548C120.488 202.82 120.202 203.001 119.854 203.119C119.52 203.217 119.143 203.273 118.746 203.259C118.328 203.231 117.931 203.189 117.534 203.126L115.053 202.75L115.764 197.998L118.669 198.437C119.687 198.597 120.384 198.904 120.767 199.37ZM119.568 214.903L124.23 215.6L121.29 206.408C122.425 206.192 123.345 205.698 124.049 204.952C124.774 204.186 125.213 203.231 125.401 202.081C125.554 201.092 125.526 200.186 125.317 199.398C125.143 198.583 124.816 197.872 124.328 197.287C123.861 196.695 123.269 196.221 122.516 195.83C121.77 195.454 120.913 195.182 119.959 195.036L112.14 193.865L109.178 213.328L113.339 213.955L114.516 206.255L117.178 206.673L119.568 214.903Z" fill="black"/>
<path d="M136.919 215.251L150.285 213.133L149.7 209.523L140.501 210.987L139.749 206.248L146.236 205.196L145.672 201.642L139.184 202.666L138.564 198.75L147.449 197.343L146.884 193.74L133.846 195.803L136.919 215.251Z" fill="black"/>
<path d="M162.354 209.126L174.493 203.196L172.891 199.914L164.535 204.004L162.424 199.705L168.305 196.799L166.73 193.559L160.835 196.437L159.093 192.869L167.169 188.932L165.567 185.65L153.707 191.44L162.354 209.126Z" fill="black"/>
</svg>
