<svg width="260" height="256" viewBox="0 0 260 256" fill="none" xmlns="http://www.w3.org/2000/svg">
<mask id="mask0_11_241" style="mask-type:luminance" maskUnits="userSpaceOnUse" x="153" y="58" width="40" height="126">
<path d="M153.281 58H192.781V184H153.281V58Z" fill="white"/>
</mask>
<g mask="url(#mask0_11_241)">
<path d="M192.52 59.8281C192.526 59.1979 192.151 58.5989 191.531 58.3437C190.718 58.0104 189.791 58.401 189.458 59.2135C186.359 66.7968 185.666 71.9999 185.109 76.1822C184.364 81.776 183.953 84.8541 178 89.2708C175.781 90.9166 172.526 92.6927 169.083 94.5781C165.708 96.4218 162.218 98.3281 159.489 100.24C157.958 101.318 156.791 102.302 155.932 103.255C154.828 104.479 154.218 105.646 154.073 106.833C153.838 108.693 154.448 110.547 155.875 112.344C157.005 113.766 158.531 115.031 159.88 116.146C160.797 116.901 161.656 117.609 162.302 118.286C162.828 118.833 163.145 119.292 163.25 119.651L163.286 119.781V119.917C163.239 122.974 161.073 124.687 158.661 126.323C158.203 126.63 157.776 126.922 157.422 127.203C156.052 128.312 155.406 129.474 155.5 130.651C155.562 131.375 155.89 132.047 156.484 132.646C156.88 133.052 157.411 133.443 158.109 133.838C159.078 134.385 160.286 134.901 161.562 135.448C164.323 136.635 166.343 137.599 167.864 138.755C169.76 140.193 170.656 141.818 170.604 143.708C170.552 145.495 169.843 146.88 168.364 148.078C166.932 149.24 165.015 150.057 163.161 150.844C161.562 151.521 160.052 152.161 158.89 153.01C157.307 154.161 156.573 155.588 156.708 157.25C156.864 159.146 158.166 160.266 159.317 161.255C160.135 161.958 160.906 162.625 161.312 163.542C161.739 164.516 161.776 164.99 161.114 167.047C159.979 170.557 160.172 173.338 161.703 175.562C162.63 176.906 164.234 177.812 166.474 178.25C168.229 178.594 170.125 178.62 171.75 178.604H171.791C171.864 178.604 179.265 178.865 182.13 179.401C183.958 179.74 186.713 180.391 189.51 182.125L190.145 182.552C190.786 183.026 191.682 182.953 192.234 182.38C192.526 182.078 192.677 181.693 192.682 181.302L192.52 59.8281Z" fill="black"/>
</g>
<path d="M153.317 139.885C153.109 139.312 152.812 138.823 152.442 138.432C151.828 137.786 151.02 137.417 150.109 137.375C149.573 137.344 149.067 137.432 148.593 137.625C148.364 137.073 148.057 136.599 147.687 136.214C147.01 135.516 146.13 135.125 145.135 135.073C144.807 135.057 144.489 135.078 144.182 135.135C143.911 134.469 143.541 133.906 143.078 133.469C142.395 132.818 141.515 132.448 140.541 132.396C140.474 132.396 140.401 132.391 140.333 132.391C139.984 131.88 139.557 131.464 139.062 131.141C138.416 130.724 137.677 130.49 136.864 130.448C135.791 130.396 134.786 130.698 133.963 131.323C133.411 131.745 132.942 132.302 132.573 132.979C132.109 132.766 131.604 132.646 131.067 132.62C130.093 132.568 129.182 132.849 128.437 133.427C127.932 133.823 127.505 134.344 127.171 134.979C126.869 134.891 126.557 134.839 126.229 134.823C125.234 134.771 124.323 135.078 123.583 135.703C123.166 136.047 122.817 136.49 122.531 137.016C122.083 136.776 121.588 136.641 121.052 136.615C120.187 136.568 119.38 136.823 118.724 137.354C118.453 137.573 118.203 137.839 117.989 138.141C117.526 137.833 116.989 137.656 116.401 137.625C115.51 137.583 114.703 137.885 114.067 138.5C113.64 138.911 113.312 139.453 113.078 140.115C112.369 140.13 111.724 140.437 111.244 141C110.76 141.562 110.479 142.344 110.432 143.255C110.385 144.172 110.599 144.964 111.041 145.547C111.5 146.146 112.171 146.495 112.942 146.536C113.25 146.552 113.557 146.51 113.849 146.422C114.02 146.604 114.208 146.766 114.411 146.896C114.156 147.359 114.296 147.953 114.75 148.245C114.895 148.339 115.073 148.396 115.25 148.406C115.614 148.427 115.958 148.245 116.156 147.943L116.541 147.349C117.031 147.276 117.494 147.078 117.895 146.776C118.005 146.693 118.104 146.604 118.203 146.51C118.307 146.62 118.416 146.724 118.531 146.818C118.776 147.021 119.041 147.187 119.328 147.312L119.265 147.557C119.135 148.104 119.468 148.656 120.015 148.786C120.078 148.802 120.145 148.812 120.208 148.818C120.698 148.839 121.13 148.516 121.25 148.042L121.375 147.521C121.875 147.417 122.343 147.193 122.75 146.87C122.984 146.687 123.198 146.474 123.39 146.229C124.01 146.766 124.76 147.068 125.593 147.115C125.625 147.12 125.651 147.115 125.677 147.115L126.776 146.99C126.802 146.984 126.828 146.979 126.854 146.974C127.27 146.849 127.666 146.651 128.02 146.385C128.427 146.078 128.786 145.682 129.083 145.214C129.145 145.24 129.208 145.266 129.27 145.286C129.255 145.427 129.27 145.568 129.312 145.703C129.395 145.964 129.578 146.172 129.817 146.297C129.948 146.365 130.088 146.401 130.234 146.411C130.63 146.432 131.005 146.214 131.192 145.859L131.401 145.448C131.885 145.349 132.343 145.161 132.76 144.88C133.083 144.661 133.38 144.396 133.645 144.078C133.812 144.219 133.989 144.344 134.177 144.448C134.395 144.578 134.619 144.687 134.859 144.771L134.828 145.328C134.817 145.599 134.911 145.859 135.093 146.062C135.276 146.266 135.526 146.38 135.796 146.396C136.067 146.411 136.328 146.318 136.531 146.135C136.734 145.953 136.854 145.703 136.864 145.427L136.885 145.005C137.281 144.958 137.656 144.859 138.015 144.708C138.265 144.87 138.536 145 138.817 145.094L138.948 145.839C139.031 146.312 139.421 146.656 139.901 146.677C139.974 146.682 140.052 146.677 140.13 146.667C140.682 146.568 141.052 146.036 140.953 145.484L140.911 145.224C141.026 145.198 141.145 145.167 141.26 145.13C141.515 145.63 141.828 146.052 142.203 146.401C142.692 146.849 143.286 147.156 143.932 147.292L144.099 147.594C144.27 147.906 144.588 148.099 144.937 148.12C145.13 148.13 145.317 148.083 145.489 147.99C145.807 147.812 145.994 147.484 146.01 147.146C146.296 147.036 146.567 146.891 146.828 146.708C146.994 146.974 147.187 147.208 147.395 147.411C147.718 147.724 148.088 147.964 148.489 148.12V148.13C148.458 148.401 148.531 148.672 148.698 148.885C148.869 149.099 149.109 149.234 149.38 149.266C149.401 149.266 149.427 149.271 149.448 149.271C149.468 149.271 149.484 149.271 149.5 149.271C150.01 149.271 150.453 148.885 150.51 148.375L150.526 148.26C150.901 148.172 151.25 148.016 151.573 147.802C152.125 147.437 152.578 146.911 152.927 146.24C153.453 146.109 153.948 145.797 154.328 145.339C154.823 144.755 155.114 143.979 155.156 143.151C155.198 142.323 154.984 141.521 154.552 140.891C154.234 140.427 153.802 140.078 153.317 139.885Z" fill="black"/>
<path d="M130.953 152.318C130.932 152.266 130.916 152.208 130.901 152.156L130.895 152.135C130.713 151.578 130.416 151.068 130.02 150.625L129.843 150.422C129.281 149.792 128.547 149.344 127.724 149.13C126.906 148.917 126.057 148.948 125.265 149.214C124.989 149.302 108.338 155.469 107.302 155.786C106.593 156.005 105.864 156.156 105.125 156.234C104.953 156.25 104.781 156.266 104.609 156.276C102.604 156.401 100.593 156.005 98.7913 155.13L89.8798 150.844C88.0048 149.932 86.6976 148.161 86.3903 146.094C86.083 144.031 86.8121 141.953 88.3434 140.531L94.4059 134.917C95.3903 134 99.5569 129.312 102.526 128.193C106.088 126.854 110.02 129.349 111.708 130.177L111.724 130.182L118.635 133.917C120.666 135.016 123.187 134.323 124.364 132.328C125.547 130.339 125.145 127.578 123.005 126.536L122.989 126.526C122.989 126.526 102.89 117.453 102.588 117.344C101.151 116.828 99.5048 117.115 98.3173 118.141L69.4736 141.911V141.917C68.3069 142.927 67.7757 144.5 68.0882 146.01L76.9476 189.354L100.797 189.984L103.489 177.714C103.75 176.167 104.52 174.724 105.661 173.651L129.755 156.604C130.922 155.505 131.385 153.87 130.958 152.339L130.953 152.318Z" fill="black"/>
<mask id="mask1_11_241" style="mask-type:luminance" maskUnits="userSpaceOnUse" x="71" y="192" width="33" height="6">
<path d="M71.9475 192H103.948V198H71.9475V192Z" fill="white"/>
</mask>
<g mask="url(#mask1_11_241)">
<path d="M73.2079 196.859L103.546 197.542L103.671 192.995L73.3329 192.135L73.2079 196.859Z" fill="black"/>
</g>
</svg>
