<svg width="260" height="256" viewBox="0 0 260 256" fill="none" xmlns="http://www.w3.org/2000/svg">
<path d="M198.589 59.4096C196.341 57.1689 193.989 55.032 191.533 53.0213C189.077 51.0032 186.532 49.1112 183.891 47.3528C181.249 45.5869 178.526 43.9546 175.721 42.4558C172.924 40.9571 170.052 39.5993 167.122 38.3825C164.183 37.1731 161.193 36.1047 158.158 35.1772C155.116 34.2572 152.037 33.4856 148.921 32.8697C145.804 32.2465 142.666 31.7791 139.505 31.4674C136.344 31.1558 133.176 31 130 31C126.824 31 123.649 31.1558 120.488 31.4674C117.327 31.7791 114.188 32.2465 111.072 32.8697C107.956 33.4856 104.884 34.2572 101.842 35.1772C98.7994 36.1047 95.8092 37.1731 92.8784 38.3825C89.9401 39.5993 87.076 40.9571 84.2713 42.4558C81.474 43.9546 78.7509 45.5869 76.1095 47.3528C73.468 49.1112 70.9156 51.0032 68.4596 53.0213C66.0036 55.032 63.6515 57.1689 61.4107 59.4096C59.1625 61.6577 57.033 64.0098 55.0148 66.4656C52.9966 68.9215 51.1119 71.4664 49.346 74.1078C47.5801 76.7492 45.9477 79.4722 44.4489 82.2768C42.9501 85.074 41.5996 87.9453 40.3828 90.8835C39.1659 93.8142 38.0975 96.8043 37.1774 99.8464C36.2499 102.881 35.4782 105.96 34.8624 109.076C34.2391 112.193 33.7791 115.331 33.4675 118.492C33.1558 121.653 33 124.821 33 127.996C33 131.179 33.1558 134.347 33.4675 137.508C33.7791 140.669 34.2391 143.807 34.8624 146.924C35.4782 150.04 36.2499 153.119 37.1774 156.154C38.0975 159.196 39.1659 162.186 40.3828 165.116C41.5996 168.055 42.9501 170.926 44.4489 173.723C45.9477 176.528 47.5801 179.251 49.346 181.892C51.1119 184.534 52.9966 187.078 55.0148 189.534C57.033 191.99 59.1625 194.342 61.4107 196.59C63.6515 198.831 66.0036 200.968 68.4596 202.979C70.9156 204.997 73.468 206.889 76.1095 208.647C78.7509 210.413 81.474 212.045 84.2713 213.544C87.076 215.043 89.9401 216.401 92.8784 217.618C95.8092 218.827 98.7994 219.895 101.842 220.823C104.884 221.743 107.956 222.514 111.072 223.13C114.188 223.754 117.327 224.221 120.488 224.533C123.649 224.844 126.824 225 130 225C133.176 225 136.344 224.844 139.505 224.533C142.666 224.221 145.804 223.754 148.921 223.13C152.037 222.514 155.116 221.743 158.158 220.823C161.193 219.895 164.183 218.827 167.122 217.618C170.052 216.401 172.924 215.043 175.721 213.544C178.526 212.045 181.249 210.413 183.891 208.647C186.532 206.889 189.077 204.997 191.533 202.979C193.989 200.968 196.341 198.831 198.589 196.59C200.838 194.342 202.967 191.99 204.978 189.534C206.996 187.078 208.888 184.534 210.654 181.892C212.42 179.251 214.045 176.528 215.544 173.723C217.043 170.926 218.4 168.055 219.617 165.116C220.834 162.186 221.903 159.196 222.823 156.154C223.743 153.119 224.514 150.04 225.138 146.924C225.753 143.807 226.221 140.669 226.533 137.508C226.844 134.347 227 131.179 227 127.996C227 124.821 226.844 121.653 226.533 118.492C226.221 115.331 225.753 112.193 225.138 109.076C224.514 105.96 223.743 102.881 222.823 99.8464C221.903 96.8043 220.834 93.8142 219.617 90.8835C218.4 87.9453 217.043 85.074 215.544 82.2768C214.045 79.4722 212.42 76.7492 210.654 74.1078C208.888 71.4664 206.996 68.9215 204.978 66.4656C202.967 64.0098 200.838 61.6577 198.589 59.4096ZM195.673 193.667C193.522 195.819 191.266 197.859 188.921 199.788C186.569 201.717 184.128 203.528 181.598 205.219C179.068 206.911 176.463 208.469 173.777 209.909C171.099 211.341 168.353 212.639 165.541 213.804C162.729 214.969 159.872 215.993 156.956 216.876C154.048 217.758 151.102 218.493 148.119 219.087C145.137 219.68 142.131 220.125 139.104 220.422C136.077 220.726 133.042 220.875 130 220.875C126.958 220.875 123.923 220.726 120.896 220.422C117.869 220.125 114.863 219.68 111.881 219.087C108.898 218.493 105.952 217.758 103.036 216.876C100.128 215.993 97.2635 214.969 94.4588 213.804C91.6467 212.639 88.9013 211.341 86.2153 209.909C83.5368 208.469 80.925 206.911 78.4022 205.219C75.872 203.528 73.4309 201.717 71.0788 199.788C68.7267 197.859 66.4785 195.819 64.3267 193.667C62.1749 191.523 60.1345 189.267 58.2053 186.915C56.2761 184.563 54.4657 182.13 52.774 179.6C51.0822 177.069 49.5241 174.465 48.092 171.779C46.6526 169.093 45.3541 166.348 44.1892 163.544C43.0317 160.732 42.0077 157.868 41.1248 154.959C40.2418 152.051 39.4998 149.105 38.9062 146.115C38.3126 143.132 37.8674 140.127 37.5706 137.1C37.2738 134.073 37.1254 131.038 37.1254 127.996C37.1254 124.962 37.2738 121.927 37.5706 118.9C37.8674 115.873 38.3126 112.868 38.9062 109.885C39.4998 106.895 40.2418 103.949 41.1248 101.041C42.0077 98.1324 43.0317 95.2685 44.1892 92.4565C45.3541 89.6519 46.6526 86.8992 48.092 84.2207C49.5241 81.5348 51.0822 78.9305 52.774 76.4005C54.4657 73.8704 56.2761 71.4368 58.2053 69.0848C60.1345 66.7327 62.1749 64.4772 64.3267 62.3329C66.4785 60.1812 68.7267 58.1409 71.0788 56.2118C73.4309 54.2827 75.872 52.4723 78.4022 50.7806C80.925 49.089 83.5368 47.5308 86.2153 46.0914C88.9013 44.6595 91.6467 43.361 94.4588 42.1962C97.2635 41.0313 100.128 40.0074 103.036 39.1245C105.952 38.2415 108.898 37.507 111.881 36.9134C114.863 36.3198 117.869 35.8747 120.896 35.5779C123.923 35.2737 126.958 35.1253 130 35.1253C133.042 35.1253 136.077 35.2737 139.104 35.5779C142.131 35.8747 145.137 36.3198 148.119 36.9134C151.102 37.507 154.048 38.2415 156.956 39.1245C159.872 40.0074 162.729 41.0313 165.541 42.1962C168.353 43.361 171.099 44.6595 173.777 46.0914C176.463 47.5308 179.068 49.089 181.598 50.7806C184.128 52.4723 186.569 54.2827 188.921 56.2118C191.266 58.1409 193.522 60.1812 195.673 62.3329C197.825 64.4772 199.866 66.7327 201.795 69.0848C203.724 71.4368 205.534 73.8704 207.219 76.4005C208.91 78.9305 210.476 81.5348 211.908 84.2207C213.34 86.8992 214.638 89.6519 215.803 92.4565C216.968 95.2685 217.992 98.1324 218.875 101.041C219.758 103.949 220.493 106.895 221.086 109.885C221.68 112.868 222.125 115.873 222.429 118.9C222.726 121.927 222.875 124.962 222.875 127.996C222.875 131.038 222.726 134.073 222.429 137.1C222.125 140.127 221.68 143.132 221.086 146.115C220.493 149.105 219.758 152.051 218.875 154.959C217.992 157.868 216.968 160.732 215.803 163.544C214.638 166.348 213.34 169.101 211.908 171.779C210.476 174.465 208.91 177.069 207.219 179.6C205.534 182.13 203.724 184.563 201.795 186.915C199.866 189.267 197.825 191.523 195.673 193.667Z" fill="black"/>
<path d="M111.384 79.6612C106.384 77.4162 101.159 76.2143 95.707 76.0707L107.18 96.6464L111.384 79.6612Z" fill="black"/>
<path d="M118.242 125.061C118.235 124.969 118.228 124.87 118.221 124.779L106.357 103.308L86.8962 97.6262C86.7795 104.405 88.0701 110.871 90.768 117.04L118.242 125.061Z" fill="black"/>
<path d="M91.8322 78.0303C89.1704 82.9908 87.5227 88.2766 86.8889 93.8874L103.545 98.606L91.8322 78.0303Z" fill="black"/>
<path d="M164.293 76.0707C158.839 76.2143 153.618 77.4162 148.616 79.6612L152.822 96.6464L164.293 76.0707Z" fill="black"/>
<path d="M149.596 100.885L144.724 80.9697C139.215 84.1678 134.634 88.4565 130.98 93.8361L137.898 122.121L149.596 100.885Z" fill="black"/>
<path d="M118.46 116.242C119.026 108.903 121.027 102.049 124.465 95.6787C125.264 94.2093 126.127 92.7778 127.061 91.3993C123.736 87.1351 119.811 83.6585 115.277 80.9697L110.404 101.299L118.46 116.242Z" fill="black"/>
<path d="M146.656 176.01H151.555L149.106 170.131L146.656 176.01Z" fill="black"/>
<path d="M173.111 93.8874C172.477 88.2766 170.83 82.9908 168.175 78.0303L156.455 98.606L173.111 93.8874Z" fill="black"/>
<path d="M92.7676 122.121C94.465 124.741 96.4441 127.152 98.6973 129.354C100.958 131.563 103.44 133.513 106.149 135.204C108.852 136.896 111.721 138.292 114.758 139.386C117.788 140.487 120.909 141.264 124.121 141.717C121.883 137.752 120.3 133.564 119.379 129.152L92.7676 122.121Z" fill="black"/>
<path d="M130 45.697C84.5431 45.697 47.697 82.5448 47.697 127.996C47.697 173.455 84.5431 210.303 130 210.303C175.45 210.303 212.303 173.455 212.303 127.996C212.303 82.5448 175.45 45.697 130 45.697ZM82.1554 96.9615C82.2897 92.6261 83.006 88.3951 84.3043 84.2611C85.6101 80.1196 87.4457 76.2393 89.8186 72.6053C90.1991 72.0232 90.7364 71.7098 91.4303 71.6725C95.0642 71.486 98.6682 71.7024 102.242 72.3367C105.824 72.9709 109.286 74.0007 112.629 75.4334C115.972 76.8587 119.113 78.6421 122.046 80.7912C124.978 82.9403 127.627 85.3878 130 88.1413C133.873 83.6566 138.417 80.0151 143.64 77.2169C147.461 75.1648 151.49 73.6724 155.721 72.7321C159.951 71.7845 164.235 71.4337 168.562 71.6725C169.256 71.7098 169.801 72.0232 170.182 72.6053C172.554 76.2393 174.39 80.1196 175.688 84.2611C176.987 88.3951 177.71 92.6261 177.837 96.9615C177.904 99.2001 177.815 101.431 177.576 103.662C177.33 105.886 176.934 108.087 176.39 110.259C175.838 112.43 175.144 114.55 174.3 116.624C173.465 118.699 172.48 120.706 171.36 122.646C170.241 124.586 168.995 126.444 167.615 128.205C166.242 129.974 164.749 131.638 163.145 133.197C161.533 134.757 159.832 136.197 158.026 137.525C156.221 138.846 154.333 140.04 152.355 141.1C145.401 144.838 137.969 146.711 130.075 146.719C129.62 146.719 129.172 146.711 128.724 146.704L123.396 155.927C123.262 156.166 123.083 156.367 122.867 156.539C122.643 156.703 122.404 156.822 122.135 156.897C121.874 156.972 121.598 156.987 121.33 156.949C121.053 156.919 120.8 156.83 120.561 156.688C120.322 156.554 120.113 156.375 119.949 156.158C119.785 155.934 119.666 155.696 119.591 155.427C119.524 155.158 119.501 154.89 119.539 154.621C119.576 154.345 119.666 154.091 119.807 153.852L124.128 146.353C122.665 146.159 121.203 145.898 119.763 145.57C118.315 145.241 116.89 144.853 115.479 144.391C114.077 143.935 112.689 143.413 111.331 142.823C109.973 142.234 108.645 141.592 107.339 140.883C106.04 140.174 104.772 139.406 103.548 138.578C102.317 137.757 101.123 136.876 99.974 135.943C98.8249 135.003 97.7205 134.018 96.661 132.988C95.6089 131.951 94.5941 130.869 93.639 129.735C92.6764 128.608 91.7735 127.437 90.9229 126.228C90.0723 125.019 89.2739 123.765 88.5426 122.482C87.8039 121.198 87.1249 119.885 86.513 118.534C85.8937 117.191 85.3415 115.818 84.8565 114.415C84.364 113.02 83.9387 111.602 83.5805 110.169C83.2224 108.729 82.9239 107.282 82.7001 105.812C82.4762 104.349 82.3195 102.879 82.2225 101.401C82.133 99.924 82.1106 98.4465 82.1554 96.9615ZM92.0272 183.94H86.7592L78.6782 165.023H84.461L89.5947 177.343L94.8403 165.023H100.138L92.0272 183.94ZM116.435 183.94H101.242V165.023H116.084V169.157H106.54V172.343H114.942V176.343H106.54V179.806H116.435V183.94ZM124.486 177.276C124.934 178.097 125.56 178.738 126.374 179.194C127.247 179.671 128.172 179.903 129.164 179.888C130.172 179.895 131.134 179.686 132.052 179.261V174.075H136.783V181.91C135.641 182.716 134.395 183.313 133.052 183.693C131.679 184.104 130.269 184.313 128.836 184.32C126.948 184.35 125.165 183.925 123.486 183.059C121.912 182.246 120.665 181.082 119.755 179.559C118.852 177.985 118.405 176.291 118.405 174.478C118.405 172.664 118.852 170.97 119.755 169.396C120.673 167.874 121.926 166.71 123.516 165.896C125.217 165.031 127.03 164.613 128.948 164.643C130.59 164.613 132.179 164.911 133.701 165.531C135.081 166.105 136.253 166.963 137.216 168.105L133.806 171.179C132.604 169.769 131.075 169.068 129.217 169.075C128.485 169.03 127.776 169.135 127.09 169.388C126.411 169.65 125.807 170.038 125.292 170.553C124.769 171.075 124.381 171.672 124.128 172.358C123.866 173.045 123.762 173.746 123.807 174.478C123.792 175.47 124.016 176.403 124.486 177.276ZM154.348 183.94L152.863 180.261H144.864L143.379 183.94H137.917L146.267 165.023H151.535L159.914 183.94H154.348ZM179.427 183.94H175.024L166.675 173.858V183.94H161.429V165.023H165.831L174.181 175.104V165.023H179.427V183.94Z" fill="black"/>
<path d="M122.185 121.634C122.403 128.414 124.158 134.779 127.45 140.737L134.899 128.059L127.465 99.5858C123.699 106.476 121.936 113.819 122.185 121.634Z" fill="black"/>
<path d="M130.98 142.697C137.878 142.527 144.369 140.833 150.446 137.631C157.457 133.94 163.053 128.77 167.232 122.121L138.428 130.028L130.98 142.697Z" fill="black"/>
<path d="M141.758 125.061L169.253 117.008C171.929 110.849 173.214 104.394 173.105 97.6262L153.742 103.299L141.758 125.061Z" fill="black"/>
</svg>
