<svg width="260" height="256" viewBox="0 0 260 256" fill="none" xmlns="http://www.w3.org/2000/svg">
<path fill-rule="evenodd" clip-rule="evenodd" d="M66.7549 80.2361C66.3435 80.265 65.9682 80.4815 65.7373 80.8207C39.7407 116.135 47.1456 165.84 82.2864 192.053C82.9071 192.529 83.8021 192.4 84.2784 191.786C84.7403 191.151 84.6104 190.256 83.9681 189.794C50.0397 164.49 42.9018 116.568 68.0107 82.4879C68.7469 81.5136 67.9746 80.1206 66.7549 80.2361Z" fill="black"/>
<path fill-rule="evenodd" clip-rule="evenodd" d="M119.694 117.975C117.99 118.134 116.309 118.726 114.425 119.909C113.941 121.995 113.566 124.348 113.4 127.177L113.501 163.545C113.516 165.782 114.158 167.255 115.212 168.258C116.244 169.254 117.781 169.867 119.924 169.867H140.003C142.146 169.867 143.698 169.261 144.73 168.258C145.762 167.255 146.426 165.782 146.441 163.545L146.542 127.177C146.361 124.348 145.993 121.995 145.517 119.909C138.826 123.193 133.839 122.306 129.567 120.508C125.446 118.776 122.523 117.744 119.694 117.975ZM115.132 78.7061H144.802C146.802 78.7061 148.418 80.3227 148.418 82.3291V86.7894C148.418 88.5432 147.191 89.9866 145.539 90.3259V93.4798C145.539 98.5608 146.996 101.946 148.757 106.384C150.511 110.83 153.03 116.207 153.008 124.557L152.879 166.165C152.879 169.557 151.767 172.509 149.674 174.522C147.581 176.522 144.644 177.503 141.389 177.503H118.546C115.291 177.503 112.368 176.522 110.282 174.522C108.189 172.509 107.078 169.557 107.063 166.165L106.941 124.557C106.912 116.207 109.423 110.83 111.192 106.384C112.945 101.938 114.41 98.5535 114.41 93.4798V90.3259C112.751 89.9866 111.509 88.5432 111.509 86.7822V82.3291C111.516 80.3227 113.133 78.7061 115.132 78.7061ZM129.964 68.6741C97.1324 68.6741 70.5295 95.2913 70.5295 128.123C70.5295 160.94 97.1468 187.557 129.964 187.557C162.802 187.557 189.398 160.94 189.412 128.123C189.412 112.346 183.148 97.2256 171.997 86.0749C160.846 74.9387 145.726 68.6741 129.964 68.6741Z" fill="black"/>
<mask id="mask0_29_8" style="mask-type:luminance" maskUnits="userSpaceOnUse" x="33" y="31" width="194" height="194">
<path d="M33 31H227V225H33V31Z" fill="white"/>
</mask>
<g mask="url(#mask0_29_8)">
<path fill-rule="evenodd" clip-rule="evenodd" d="M129.964 35.7778C180.997 35.7778 222.323 77.0677 222.323 128.108C222.323 179.134 180.997 220.453 129.964 220.453C78.938 220.453 37.6192 179.134 37.6192 128.108C37.6192 77.0677 78.9452 35.7778 129.964 35.7778ZM129.964 31.0865C76.4048 31.0865 32.928 74.5417 32.928 128.108C32.928 181.66 76.4048 225.144 129.964 225.144C183.531 225.144 227.015 181.66 227.015 128.108C227.015 74.5417 183.538 31.0865 129.964 31.0865Z" fill="black"/>
</g>
<path fill-rule="evenodd" clip-rule="evenodd" d="M193.173 80.2364C193.591 80.2653 193.959 80.4818 194.198 80.821C220.194 116.135 212.818 165.84 177.656 192.053C177.035 192.53 176.147 192.414 175.678 191.786C175.202 191.151 175.339 190.256 175.974 189.794C209.924 164.491 217.055 116.568 191.946 82.4882C191.21 81.5138 191.96 80.1426 193.173 80.2364Z" fill="black"/>
<path d="M96.5913 192.01L104.278 195.734L105.865 192.458L94.3972 186.9L85.8159 204.611L89.605 206.445L93.2858 198.852L99.0596 201.616L100.597 198.361L94.8591 195.583L96.5913 192.01Z" fill="black"/>
<path d="M120.394 199.783C120.603 200 120.726 200.281 120.805 200.62C120.885 200.938 120.885 201.342 120.82 201.797C120.74 202.302 120.589 202.685 120.343 202.959C120.105 203.219 119.824 203.406 119.492 203.514C119.138 203.63 118.763 203.68 118.366 203.673C117.947 203.644 117.55 203.601 117.153 203.543L114.671 203.161L115.392 198.397L118.286 198.838C119.304 198.996 120.004 199.3 120.394 199.783ZM119.189 215.308L123.851 216.008L120.906 206.806C122.047 206.589 122.963 206.113 123.671 205.362C124.399 204.597 124.833 203.63 125.02 202.482C125.172 201.486 125.15 200.592 124.941 199.79C124.76 198.982 124.436 198.282 123.945 197.69C123.483 197.106 122.884 196.629 122.14 196.239C121.39 195.864 120.531 195.59 119.578 195.446L111.762 194.262L108.803 213.734L112.96 214.362L114.144 206.661L116.8 207.08L119.189 215.308Z" fill="black"/>
<path d="M136.539 215.646L149.898 213.539L149.335 209.938L140.133 211.381L139.368 206.654L145.856 205.607L145.293 202.049L138.82 203.074L138.184 199.155L147.076 197.755L146.506 194.146L133.464 196.218L136.539 215.646Z" fill="black"/>
<path d="M161.972 209.534L174.126 203.601L172.517 200.324L164.159 204.402L162.045 200.101L167.927 197.199L166.353 193.966L160.457 196.846L158.71 193.28L166.801 189.325L165.191 186.056L153.326 191.844L161.972 209.534Z" fill="black"/>
<path d="M81.3341 81.7879L90.7165 73.4881L88.2843 70.7528L82.0702 76.2523L71.432 64.25L68.2925 67.0431L81.3341 81.7879Z" fill="black"/>
<path d="M91.2434 56.2895L96.1367 61.6014L92.8673 63.3479L91.2434 56.2895ZM101.528 67.469L105.288 65.4554L91.0341 50.7394L86.646 53.0922L90.9475 73.1418L94.6788 71.1498L93.7261 66.9638L98.6483 64.3295L101.528 67.469Z" fill="black"/>
<path d="M117.687 61.2261C118.178 60.6487 118.568 59.9775 118.842 59.2124C119.138 58.4474 119.355 57.538 119.484 56.4627L115.378 56.4338C115.298 56.8885 115.197 57.3143 115.082 57.7185C114.966 58.101 114.808 58.4618 114.613 58.7866C114.425 59.097 114.158 59.3568 113.841 59.5877C113.53 59.8043 113.126 59.9919 112.628 60.1146C111.372 60.4249 110.326 60.1579 109.525 59.2918C108.659 58.4041 107.973 56.939 107.453 54.8965C107.367 54.5212 107.258 54.1098 107.157 53.6335C107.085 53.1644 107.02 52.688 106.991 52.2117C106.955 51.7065 106.955 51.2157 106.991 50.7322C107.056 50.2486 107.172 49.7939 107.338 49.3898C107.511 48.9639 107.756 48.6031 108.074 48.2927C108.413 47.9824 108.839 47.7514 109.337 47.6215C110.232 47.3906 110.983 47.4772 111.589 47.8669C112.195 48.2566 112.744 48.8124 113.22 49.5341L116.735 47.6865C116.121 46.6544 115.522 45.8533 114.894 45.2831C114.288 44.6913 113.646 44.2871 112.946 44.0851C111.589 43.6665 110.131 43.6592 108.579 44.0418C107.129 44.4171 105.995 45.0017 105.144 45.8028C104.292 46.5895 103.671 47.5277 103.296 48.6175C102.921 49.6784 102.748 50.826 102.777 52.0818C102.82 53.3232 102.993 54.5573 103.318 55.8131C103.65 57.0834 104.083 58.2742 104.639 59.3857C105.209 60.4827 105.909 61.4137 106.746 62.186C107.569 62.9366 108.55 63.4634 109.676 63.7593C110.817 64.048 112.094 64.0191 113.53 63.6438C115.342 63.1964 116.735 62.3808 117.687 61.2261Z" fill="black"/>
<path d="M130.094 45.348L135.096 45.2542L135.031 41.6239L120.856 41.8837L120.921 45.514L125.894 45.4274L126.19 61.4858L130.39 61.4136L130.094 45.348Z" fill="black"/>
<path d="M150.584 49.4186C150.988 50.6311 150.959 52.2983 150.483 54.3913C150.006 56.4987 149.321 57.9999 148.418 58.9165C147.567 59.8042 146.455 60.1073 145.07 59.7826C143.691 59.4722 142.796 58.7216 142.406 57.5452C141.995 56.3327 142.031 54.68 142.515 52.587C142.991 50.4795 143.677 48.9783 144.572 48.0617C145.423 47.1668 146.542 46.8709 147.942 47.1957C149.321 47.506 150.201 48.2566 150.584 49.4186ZM150.901 62.0921C152.669 60.6992 153.911 58.4474 154.604 55.3367C154.914 54.0088 155.044 52.7241 155.037 51.4755C155.037 50.2053 154.806 49.0433 154.351 47.9968C153.925 46.9575 153.247 46.0481 152.33 45.2975C151.442 44.5253 150.259 43.9768 148.75 43.6303C147.256 43.2983 145.936 43.2695 144.774 43.5654C143.626 43.8541 142.63 44.3809 141.764 45.146C140.92 45.8893 140.212 46.8348 139.657 47.9751C139.101 49.0938 138.69 50.3135 138.379 51.6415C138.083 52.9623 137.925 54.2686 137.925 55.5316C137.953 56.7802 138.184 57.935 138.61 58.9959C139.065 60.0424 139.736 60.9445 140.653 61.7096C141.576 62.4602 142.775 63.0159 144.269 63.3479C146.888 63.9397 149.111 63.5283 150.901 62.0921Z" fill="black"/>
<path d="M165.249 70.1033C166.837 69.7424 168.071 68.6959 168.959 66.9926C169.774 65.412 169.854 63.9181 169.168 62.5035C168.547 61.1466 167.681 59.8981 166.584 58.7577C165.826 57.935 165.163 57.1194 164.636 56.3183C164.383 55.9141 164.231 55.5821 164.195 55.2646C164.174 54.9831 164.203 54.7088 164.333 54.4779C164.491 54.182 164.686 53.9655 164.903 53.8211C165.163 53.684 165.415 53.6046 165.682 53.6046C165.964 53.5902 166.245 53.6335 166.519 53.7129C166.815 53.785 167.097 53.8861 167.349 54.016C168.136 54.4346 168.627 54.947 168.814 55.5966C169.045 56.2245 169.125 56.9534 169.06 57.7762L173.073 58.5123C173.138 57.5308 173.094 56.6792 172.943 55.943C172.784 55.2068 172.517 54.5356 172.142 53.9149C171.391 52.6736 170.33 51.692 168.944 50.9775C167.306 50.1331 165.704 49.8733 164.138 50.2053C162.564 50.5445 161.424 51.4178 160.702 52.8035C159.966 54.2109 159.865 55.5677 160.392 56.8524C160.897 58.0504 161.879 59.4722 163.344 61.1033C164.087 61.9261 164.672 62.7272 165.112 63.5067C165.494 64.1995 165.552 64.8491 165.242 65.4265C165.047 65.8162 164.802 66.1121 164.513 66.2925C164.246 66.473 163.95 66.5812 163.611 66.6029C163.315 66.6318 162.976 66.5885 162.644 66.4874C162.29 66.3864 161.958 66.2565 161.619 66.0688C161.157 65.8379 160.767 65.5564 160.457 65.2316C160.161 64.9068 159.944 64.546 159.786 64.1707C159.62 63.7809 159.511 63.3696 159.468 62.9293C159.425 62.4746 159.425 61.9911 159.454 61.4786L155.614 61.226C155.535 62.2581 155.585 63.1747 155.773 63.9614C155.96 64.7408 156.3 65.4626 156.762 66.1482C157.613 67.4401 158.674 68.4216 159.944 69.0784C161.915 70.1033 163.69 70.4497 165.249 70.1033Z" fill="black"/>
<path d="M168.742 73.8778L178.897 82.8055L181.315 80.0558L174.307 73.9139L177.475 70.3125L182.426 74.6284L184.786 71.9291L179.864 67.5843L182.477 64.618L189.246 70.5434L191.65 67.8008L181.726 59.0824L168.742 73.8778Z" fill="black"/>
</svg>
